<?xml version="1.0" encoding="utf-8"?>
<!-- Generator: Adobe Illustrator 24.0.2, SVG Export Plug-In . SVG Version: 6.00 Build 0)  -->
<svg version="1.1" id="Layer_1" xmlns="http://www.w3.org/2000/svg" xmlns:xlink="http://www.w3.org/1999/xlink" x="0px" y="0px"
	 viewBox="0 0 2000 2000" style="enable-background:new 0 0 2000 2000;" xml:space="preserve">
<style type="text/css">
	.st0{display:none;fill:#4D226D;}
	.st1{fill:#EA002A;}
	.st2{fill:#231F20;}
</style>
<rect class="st0" width="2000" height="2000"/>
<rect class="st1" width="2000" height="2000"/>
<g>
	<g>
		<path d="M1627.51,579.01c-10.23,12.85-26.78,26.36-46.08,39.33c-37.51,25.2-85.16,48.18-117.77,60.6
			c0.45-5.34,0.77-10.76,0.94-16.26c88.09-36.7,153.87-100.38,170.22-117c0.46,0.67,0.86,1.34,1.22,2.01
			C1640.67,556.51,1636.8,567.36,1627.51,579.01z"/>
		<path d="M1619.27,622.83l-0.37,0.57c-9,14.02-24.11,27.36-42.09,39.49c-34.79,23.45-80.11,42.1-114.09,52.56l-4.79,1.44
			c1.89-8.55,3.42-17.36,4.54-26.45c33.19-12.13,84.64-36.57,124.73-63.51c15.84-10.64,29.97-21.71,40.59-32.63
			C1628.25,604,1625.11,613.56,1619.27,622.83z"/>
		<path d="M1614.03,668.76l-0.33,0.36c-1.11,1.21-2.28,2.42-3.52,3.61c-12.66,12.22-31.91,23.63-53.4,33.62
			c-35.66,16.57-77.24,29.09-105.52,35c1.37-4.21,2.65-8.49,3.82-12.85c3.33-0.93,6.9-1.98,10.69-3.14
			c34.76-10.7,81.16-29.8,116.84-53.86c16.34-11.02,30.48-23.12,40.42-36.02c0.35,0.8,0.64,1.59,0.9,2.38
			C1627.29,648.24,1623.1,658.7,1614.03,668.76z"/>
		<path d="M1613.56,683.69c-0.23,12.19-5.35,23.3-13.83,33.27l-0.37,0.43c-7.74,8.97-18.2,17.02-30.29,24.12
			c-26.96,15.84-61.84,26.88-93.07,32.99c-15.03,2.94-29.15,4.73-41.07,5.37c4.58-8.61,8.7-17.66,12.3-27.14
			c28.81-5.42,74.84-18.81,113.88-36.96C1581.54,706.27,1600.15,695.44,1613.56,683.69z"/>
		<path d="M1599.6,732c0,1-0.04,2-0.11,3c-1.33,17.76-14.41,32.37-33.43,44.02c-19.86,12.18-46.07,21.11-72.47,27.14
			c-30.5,6.97-61.11,10.05-82.55,9.85l0.48-0.59c6.28-7.79,12.11-16.13,17.44-24.98c13.76-0.28,30.83-2.2,49.05-5.76
			c32.17-6.29,68.23-17.74,96.32-34.25C1583.77,744.87,1592.35,738.73,1599.6,732z"/>
		<path d="M1578.13,783.49c-1.67,33.96-10.34,36.48-45.14,46.55l-7.51,2.18c-24.01,7.03-59.89,16.1-94.57,19.37
			c-19.48,1.84-38.54,1.84-54.77-1.38c9.27-7.2,18.03-15.25,26.17-24.11c22.16,1.25,58.05-1.73,93.59-9.85
			c27.36-6.25,54.65-15.57,75.56-28.4C1573.76,786.45,1575.99,785,1578.13,783.49z"/>
		<path d="M1554.51,834.39c-2.8,7.47-6.43,14.25-10.77,20.39c-11.5,16.26-28.05,28.13-47.3,36.35l-0.45,0.19
			c-12.95,5.47-27.09,9.31-41.74,11.74c-37.17,6.16-77.46,3.25-109.66-4.97c-13.66-3.48-25.8-7.91-35.54-12.97
			c9.04-2.77,17.89-6.16,26.5-10.15c10.25-4.75,20.16-10.35,29.62-16.77c19.21,5.53,42.76,5.96,66.73,3.7
			c35.52-3.34,72.07-12.57,96.48-19.73l7.51-2.18C1542.98,837.94,1549.15,836.15,1554.51,834.39z"/>
		<path d="M1491.27,904.27c-2.65,9.73-7.23,17.74-13.37,24.21c-10.94,11.54-27.03,18.42-46.23,21.65
			c-19.73,3.32-42.68,2.77-66.77-0.58c-43.45-6.04-90.34-21.12-128.81-39.12c1.08-5.45,1.92-10.87,2.54-16.26
			c1.44,0.06,2.88,0.1,4.32,0.14c17.64,0.37,35.11-1.46,52.06-5.4c11.7,7.76,28.06,14.41,47.01,19.25
			c33.4,8.53,75.24,11.54,113.89,5.13C1468.12,911.26,1480.02,908.29,1491.27,904.27z"/>
		<path d="M1411.95,962.53c-22.76,12.86-50.68,19.1-80.69,20.14c-0.93-0.24-1.93-0.22-2.87,0.08c-26.36,0.62-54.23-2.71-81.57-9.06
			c-10.01-2.33-19.93-5.05-29.69-8.13c3.57-7.13,6.77-14.47,9.56-22.01c2.86-7.69,5.21-15.3,7.1-22.85
			c39.1,18.05,86.13,33.07,129.69,39.13C1380.33,962.17,1396.71,963.18,1411.95,962.53z"/>
		<path d="M1307.68,992.81c-16.73,6.38-40.62,11.68-72.78,10.61c-11.75-0.39-24.59-1.64-38.58-3.99
			c5.8-7.83,11.11-16.03,15.89-24.57c10.6,3.41,21.4,6.41,32.29,8.94C1265.5,988.68,1286.85,991.81,1307.68,992.81z"/>
		<path d="M809.3,998.43c-16.19,3.01-30.9,4.55-44.2,4.99c-32.16,1.08-56.04-4.23-72.78-10.61c20.83-1,42.18-4.14,63.17-9.01
			c12.65-2.94,25.18-6.51,37.42-10.63C797.83,981.89,803.29,990.34,809.3,998.43z"/>
		<path d="M787.97,963.9c-11.38,3.77-23.03,7.05-34.78,9.78c-27.34,6.35-55.22,9.68-81.57,9.06c-0.95-0.3-1.95-0.32-2.88-0.08
			c-30-1.04-57.92-7.28-80.69-20.14c15.25,0.65,31.63-0.36,48.47-2.71c45.12-6.28,93.97-22.16,133.86-41.08
			C774.75,934.29,780.62,949.43,787.97,963.9z"/>
		<path d="M767.76,908.62c-39.17,18.79-87.75,34.69-132.66,40.93c-24.09,3.35-47.04,3.9-66.77,0.58
			c-19.2-3.23-35.28-10.11-46.23-21.65c-6.14-6.47-10.72-14.48-13.37-24.21c11.25,4.03,23.15,6.99,35.35,9.02
			c38.65,6.4,80.49,3.39,113.89-5.13c18.96-4.84,35.32-11.49,47.01-19.25c16.95,3.94,34.42,5.78,52.06,5.4
			c2.57-0.05,5.14-0.15,7.72-0.3C765.62,898.9,766.61,903.77,767.76,908.62z"/>
		<path d="M690.96,885.12c-9.75,5.06-21.88,9.49-35.54,12.97c-32.2,8.22-72.49,11.12-109.66,4.97c-14.65-2.43-28.8-6.27-41.74-11.74
			l-0.45-0.19c-19.25-8.22-35.79-20.08-47.3-36.35c-4.33-6.14-7.97-12.92-10.77-20.39c5.35,1.76,11.52,3.55,18.63,5.6l7.52,2.18
			c24.41,7.16,60.96,16.39,96.48,19.73c23.97,2.25,47.52,1.82,66.73-3.71c9.46,6.42,19.36,12.01,29.62,16.77
			C673.07,878.96,681.92,882.35,690.96,885.12z"/>
		<path d="M623.86,850.22c-16.23,3.23-35.29,3.22-54.79,1.38c-34.66-3.27-70.55-12.33-94.55-19.37l-7.51-2.18
			c-34.8-10.07-43.47-12.59-45.14-46.55c2.14,1.5,4.37,2.96,6.67,4.37c20.91,12.82,48.19,22.15,75.56,28.4
			c35.55,8.12,71.43,11.1,93.59,9.85C605.84,834.96,614.59,843.01,623.86,850.22z"/>
		<path d="M588.97,816.01c-21.44,0.19-52.06-2.89-82.55-9.85c-26.4-6.03-52.61-14.96-72.47-27.14
			c-19.01-11.66-32.09-26.26-33.43-44.02c-0.07-0.99-0.11-1.99-0.11-3c7.25,6.73,15.83,12.88,25.29,18.43
			c28.09,16.51,64.15,27.95,96.32,34.25c18.21,3.56,35.29,5.49,49.05,5.76c5.33,8.85,11.16,17.18,17.44,24.98L588.97,816.01z"/>
		<path d="M565.07,779.87c-11.92-0.64-26.04-2.43-41.07-5.37c-31.23-6.11-66.12-17.15-93.06-32.99
			c-12.09-7.1-22.56-15.15-30.29-24.12l-0.37-0.43c-8.48-9.97-13.59-21.07-13.83-33.27c13.41,11.75,32.01,22.58,52.44,32.08
			c39.04,18.14,85.07,31.54,113.88,36.96C556.38,762.21,560.49,771.26,565.07,779.87z"/>
		<path d="M548.74,741.35c-28.28-5.91-69.85-18.43-105.52-35c-21.49-9.98-40.74-21.4-53.4-33.62c-1.24-1.2-2.42-2.4-3.52-3.61
			l-0.33-0.36c-9.08-10.07-13.27-20.53-9.91-30.9c0.26-0.79,0.55-1.58,0.9-2.38c9.94,12.9,24.08,25,40.42,36.02
			c35.68,24.06,82.08,43.15,116.84,53.86c3.79,1.17,7.36,2.22,10.69,3.14C546.1,732.86,547.37,737.14,548.74,741.35z"/>
		<path d="M542.07,716.9l-4.79-1.44c-33.98-10.47-79.29-29.11-114.09-52.56c-17.98-12.13-33.09-25.47-42.09-39.49l-0.37-0.57
			c-5.84-9.27-8.99-18.83-8.52-28.51c10.62,10.92,24.75,21.99,40.59,32.63c40.09,26.94,91.54,51.37,124.73,63.51
			C538.65,699.54,540.18,708.35,542.07,716.9z"/>
		<path d="M536.34,678.94c-32.61-12.42-80.27-35.39-117.77-60.6c-19.3-12.97-35.85-26.48-46.08-39.33
			c-9.29-11.66-13.16-22.5-8.53-31.32c0.35-0.67,0.76-1.34,1.22-2.01c16.35,16.62,82.13,80.3,170.22,117
			C535.57,668.18,535.89,673.6,536.34,678.94z"/>
		<path d="M1454.08,666.9c-0.3,6.43-0.8,12.73-1.49,18.91l-0.06,0.54c-1.44,12.68-3.68,24.82-6.65,36.39l-0.14,0.54
			c-2.04,7.88-4.41,15.5-7.1,22.85l-0.17,0.46c-8.7,23.61-20.64,44.47-35.03,62.33c-2.27,2.81-4.59,5.55-6.98,8.21l-0.32,0.35
			c-18.63,20.7-40.76,36.87-64.95,48.07c-25.32,11.73-52.87,18.03-80.99,18.43c77.18-19.89,117.76-56.45,138.34-94.35
			c22.24-40.94,21.03-83.27,17.42-107.99C1422.54,677.86,1438.63,672.83,1454.08,666.9z"/>
		<path d="M1379.46,784.67c-18.4,33.88-54.08,66.69-120.74,86.21c40.68-18.84,66.42-46.72,82.57-76.13
			c21.27-38.75,25.78-80.09,26-106.84l3.22-0.3c8.54-0.91,16.98-2.2,25.3-3.82C1399.13,707.2,1400.09,746.69,1379.46,784.67z"/>
		<path d="M1356.94,688.53c-0.28,25.61-4.68,64.71-24.74,101.23c-16.99,30.94-45.34,60.09-92.17,77.69
			c-0.05-5.57-0.32-11.12-0.78-16.66c15.32-9.6,28.06-21.11,38.63-33.6c36.5-43.15,47.01-98.1,50-128.47l1.95,0.01
			C1339.19,688.8,1348.32,688.86,1356.94,688.53z"/>
		<path d="M1317.46,688.7c-2.99,29.31-13.18,81.24-47.5,121.8c-8.9,10.52-19.45,20.29-31.94,28.7
			c-2.83-21.89-8.45-43.55-15.68-65.29c-3.74-11.25-7.91-22.53-12.35-33.87c0.28-0.43,0.55-0.86,0.82-1.29
			c9-14.29,17.73-28.15,30.67-36.08C1261.79,690.23,1289.95,688.75,1317.46,688.7z"/>
		<path d="M749.8,883.98c-28.11-0.39-55.67-6.7-80.99-18.43c-24.19-11.21-46.32-27.37-64.95-48.07l-0.32-0.35
			c-2.38-2.66-4.71-5.39-6.98-8.21c-14.4-17.86-26.34-38.72-35.03-62.33l-0.17-0.46c-2.69-7.35-5.07-14.97-7.1-22.85l-0.14-0.54
			c-2.97-11.57-5.21-23.72-6.65-36.39l-0.06-0.54c-0.69-6.18-1.19-12.48-1.49-18.91c15.45,5.93,31.53,10.96,48.11,14.74
			c-3.61,24.72-4.82,67.05,17.42,107.99C632.04,827.53,672.63,864.09,749.8,883.98z"/>
		<path d="M741.36,870.91c-66.7-19.52-102.4-52.35-120.82-86.24c-20.63-37.98-19.67-77.48-16.35-100.88
			c8.33,1.62,16.76,2.91,25.29,3.82l3.22,0.3c0.16,19.49,2.6,46.73,12.13,75.04c7.28,21.64,18.72,43.93,36.44,63.9
			c13.17,14.83,29.76,28.38,50.66,39.4C734.99,867.86,738.13,869.42,741.36,870.91z"/>
		<path d="M761.61,868.07c-8.93-3.27-17.18-6.95-24.84-10.99c-19.74-10.41-35.37-23.16-47.73-37.09
			c-16.69-18.81-27.48-39.86-34.38-60.33c-9-26.73-11.39-52.5-11.6-71.13c8.62,0.33,17.75,0.27,27.11,0.21l1.95-0.01
			c2.99,30.38,13.5,85.32,50,128.47c10.63,12.56,23.45,24.12,38.9,33.76C761.02,856.67,761.22,862.38,761.61,868.07z"/>
		<path d="M788.98,738.43c-16.88,31.15-25.96,65.56-27.66,100.33c-12.21-8.32-22.54-17.93-31.28-28.26
			c-34.31-40.56-44.5-92.49-47.5-121.8c27.51,0.05,55.67,1.53,75.97,13.97C771.35,710.54,780.05,724.26,788.98,738.43z"/>
		<g>
			<path d="M1238.64,894.17c-0.62,5.39-1.47,10.81-2.54,16.26c-0.67,3.41-1.44,6.83-2.3,10.26c-1.89,7.55-4.24,15.16-7.1,22.85
				c-2.8,7.54-6,14.88-9.56,22.01c-1.57,3.14-3.21,6.25-4.92,9.31c-4.78,8.53-10.09,16.74-15.89,24.57
				c-2.32,3.14-4.72,6.22-7.2,9.24c-10.82,13.2-23.06,25.22-36.42,35.83c-2.72,2.16-5.48,4.26-8.28,6.3
				c-8.1,5.89-16.55,11.29-25.31,16.15c-3.02,1.68-6.08,3.29-9.17,4.84c-7.57,3.79-15.33,7.18-23.26,10.16
				c-3.23,1.22-6.5,2.36-9.79,3.43c-0.7,0.23-1.4,0.46-2.11,0.68c-5.62,1.78-11.31,3.34-17.06,4.7c-2.94,0.7-5.89,1.33-8.85,1.9
				c-1.91,0.38-3.84,0.73-5.76,1.05c-0.01,0-0.01,0-0.01,0c-7.27,1.23-14.62,2.11-22.02,2.62c-23.93,1.67-47.99-0.51-71.28-6.09
				h-0.01c-0.13-0.03-0.26-0.06-0.39-0.1c-1.42-0.33-2.83-0.69-4.24-1.06c-7.16-1.85-14.23-4.04-21.2-6.53
				c-1.52-0.54-3.04-1.1-4.55-1.67c0,0-0.01-0.01-0.01-0.01c-1.72-0.65-3.44-1.33-5.15-2.02c-7.63-3.09-15.12-6.55-22.41-10.38
				c-3.07-1.59-6.09-3.26-9.09-4.99c-8.61-4.96-16.91-10.43-24.86-16.39c-2.79-2.08-5.53-4.23-8.23-6.43
				c-12.11-9.89-23.26-20.95-33.2-33.04c-1.06-1.29-2.11-2.58-3.14-3.9c-1.37-1.74-2.71-3.5-4.02-5.27
				c-6.02-8.1-11.48-16.54-16.39-25.27c-1.72-3.05-3.38-6.14-4.95-9.26c-7.34-14.47-13.22-29.62-17.58-45.16
				c-0.95-3.36-1.82-6.73-2.62-10.13c-1.15-4.84-2.14-9.72-2.99-14.61c-1.51-8.59-2.56-17.24-3.16-25.93
				c-0.39-5.69-0.59-11.4-0.59-17.11c0-4.07,0.1-8.13,0.3-12.2c1.71-34.77,10.79-69.18,27.66-100.33c1.53-2.84,3.14-5.66,4.81-8.44
				c0.38,0.65,0.79,1.34,1.18,2c2.67,4.7,5.43,9.38,8.27,14.07c1.04,1.69,2.09,3.39,3.15,5.1c2.44,3.94,4.95,7.87,7.52,11.79
				c0.68,1.03,1.29,2.09,1.98,3.12c-0.85,1.79-1.67,3.59-2.46,5.39c-11.4,25.87-17.17,53.18-17.17,81.42c0,1.28,0.01,2.54,0.04,3.81
				c0.07,3.76,0.24,7.49,0.52,11.2c0.25,3.45,0.6,6.87,1.03,10.28c0.46,3.68,1.02,7.32,1.68,10.94c0.13,0.71,0.26,1.41,0.4,2.11
				c0.69,3.57,1.47,7.1,2.35,10.6c4.34,17.33,10.94,33.83,19.46,49.16c1.68,3.03,3.45,6.02,5.28,8.96
				c6.42,10.28,13.73,19.96,21.85,28.93c2.6,2.87,5.28,5.67,8.03,8.4c3.14,3.11,6.38,6.12,9.73,9.02c2.74,2.38,5.53,4.68,8.4,6.92
				c3.56,2.78,7.23,5.45,10.98,7.99c4.19,2.85,8.5,5.55,12.91,8.08c22.83,13.14,48.46,22.03,75.85,25.51h0.01
				c3.61,0.46,7.26,0.83,10.93,1.1l29.33-0.04c3.36-0.24,6.69-0.58,10.01-0.99h0.01c27.4-3.39,53.09-12.25,75.97-25.41v-0.01
				c4.42-2.54,8.73-5.24,12.93-8.08c3.78-2.57,7.47-5.26,11.06-8.06c2.86-2.24,5.66-4.54,8.39-6.92c3.36-2.92,6.63-5.95,9.78-9.09
				c2.75-2.72,5.43-5.53,8.02-8.4c8.1-8.97,15.4-18.66,21.82-28.94c1.83-2.94,3.59-5.93,5.28-8.96
				c8.51-15.32,15.1-31.83,19.44-49.16c0.88-3.5,1.66-7.03,2.36-10.6c0.14-0.7,0.27-1.41,0.4-2.12c0.66-3.63,1.22-7.28,1.69-10.96
				c0.43-3.4,0.77-6.82,1.02-10.27c0.28-3.71,0.46-7.45,0.52-11.21c0.03-1.26,0.04-2.53,0.04-3.8c0-24.98-4.7-49.7-13.91-73.5
				c-1.04-2.67-2.13-5.3-3.29-7.91c-0.8-1.82-1.63-3.63-2.49-5.42c0.75-1.13,1.43-2.27,2.16-3.39c2.51-3.81,4.93-7.64,7.31-11.45
				c1.11-1.79,2.23-3.59,3.3-5.37c3.16-5.21,6.27-10.45,9.18-15.81c1.35,3.35,2.67,6.69,3.97,10.03
				c4.44,11.34,8.6,22.61,12.35,33.87c7.23,21.74,12.84,43.4,15.68,65.29c0.5,3.85,0.91,7.72,1.22,11.59
				c0.46,5.53,0.73,11.08,0.78,16.66C1240.12,876.29,1239.68,885.19,1238.64,894.17z"/>
			<path d="M1240.08,527.61c-11.64,27.83-28.11,53.62-48.8,76.09c-6.43,17.6-15.23,33.95-26.01,48.9l0.14,0.12l-5.97,7.84
				c-12.46,15.63-27.28,29.41-44.09,40.99l-5.66,3.92l-0.19-0.14c-28.54,18.28-61.02,29.27-94.45,31.75l-29.34,0.01
				c-34.14-2.49-66.67-13.5-95.24-31.81l-0.21,0.16l-5.65-3.92c-12.63-8.71-24.13-18.66-34.35-29.69
				c-3.41-3.68-6.67-7.49-9.79-11.39l-6.3-7.94l0.31-0.27c-10.69-14.94-19.46-31.28-25.85-48.86c-20.05-21.7-36.03-46.15-47.5-72.68
				c-0.41-0.93-0.81-1.85-1.19-2.79c-0.05,2.07-0.09,4.13-0.09,6.19v18.06c0.93,48.51,15.56,100.32,43.5,153.74
				c9.36,17.89,20.22,36.01,32.27,53.85c53.38,79.15,120.95,141.18,156.5,171.12l7.88,6.15l8.18-6.39
				c35.2-29.67,102.71-91.6,156.1-170.79c12.24-18.17,23.14-36.33,32.34-53.97c16.41-31.41,28.3-62.51,35.39-92.42
				c5.03-21.21,7.77-41.99,8.14-61.75v-17.6C1240.15,531.92,1240.13,529.76,1240.08,527.61z"/>
			<path d="M875.37,668.68c0.81,0.74,1.67,1.42,2.48,2.15c3.44,3.04,6.99,5.97,10.66,8.79c0.69,0.51,1.38,1.02,2.07,1.53
				c13.42-8.54,27.97-15.53,43.37-20.85c21.58-7.42,43.8-11.19,66.04-11.19c22.72,0,45.1,3.77,66.49,11.19
				c15.02,5.21,29.42,12.25,42.9,20.89c0.67-0.51,1.36-0.99,2.03-1.5c3.67-2.84,7.24-5.75,10.68-8.81c0.81-0.7,1.67-1.4,2.48-2.13
				c4.08-3.73,7.96-7.66,11.67-11.76c0.28-0.3,0.55-0.63,0.81-0.95c-3.39-2.32-7.01-4.71-10.95-7.17
				c-20.55-12.79-42.69-22.37-65.81-28.37c-39.83-10.39-81.71-10.3-120.98,0c-23.02,6-45.04,15.48-65.44,28.14
				c-3.7,2.29-7.4,4.71-11.04,7.28c0.28,0.31,0.53,0.64,0.81,0.93C867.35,660.95,871.26,664.91,875.37,668.68z"/>
			<path d="M829.23,785.46c-8.62,21.55-13.06,44.13-13.06,67.4c0,27.3,6.3,53.3,17.22,76.79c32.96,63.18,106.12,64.59,152.87,21.89
				l-6.71-5.23c-3.37-2.85-7.08-6.04-10.95-9.4c-34.9,24.1-82.77,19.59-105.43-23.84c-8.22-17.66-12.93-37.19-12.93-57.71
				c0-12.23,1.71-24.18,4.91-35.8C846.37,808.63,837.66,797.29,829.23,785.46z"/>
			<path d="M949.33,920.18c-19.84-17.26-48.87-44.76-76.49-79.14c-2.15,7.86-3.3,15.91-3.3,24.16c0,13.82,3.17,27.01,8.71,38.89
				C893.52,933.37,925.81,936.41,949.33,920.18z"/>
			<path d="M1020.45,946.32l-6.72,5.23c46.75,42.7,119.92,41.29,152.87-21.89c10.95-23.49,17.22-49.49,17.22-76.79
				c0-23.28-4.42-45.86-13.05-67.4c-8.43,11.83-17.14,23.17-25.93,34.11c3.19,11.62,4.92,23.57,4.92,35.8
				c0,20.52-4.72,40.05-12.94,57.71c-22.65,43.42-70.54,47.93-105.42,23.84C1027.52,940.28,1023.81,943.48,1020.45,946.32z"/>
			<path d="M1121.75,904.09c5.55-11.88,8.73-25.07,8.73-38.89c0-8.26-1.17-16.31-3.32-24.16c-27.61,34.38-56.64,61.87-76.48,79.14
				C1074.21,936.41,1106.49,933.37,1121.75,904.09z"/>
			<path d="M968.06,987.32c0,0,23.11,16.19,31.94,31.76c8.85-15.57,31.95-31.76,31.95-31.76c-14.01-4.99-31.95-20.24-31.95-20.24
				S982.07,982.32,968.06,987.32z"/>
		</g>
	</g>
	<g>
		<g>
			<g>
				<path d="M304.62,1133.8H155.08v193.97h149.54l32.38-32.38v-129.22L304.62,1133.8z M288.51,1275.35l-4.07,3.92h-80.86v-96.98
					h80.86l4.07,3.93V1275.35z"/>
			</g>
			<g>
				<path d="M419.57,1279.27v48.5h175.81v-48.5H419.57z M419.57,1208.3v44.83h175.81v-44.83H419.57z M419.57,1133.8v48.49h175.81
					v-48.49H419.57z"/>
			</g>
			<g>
				<path d="M871.79,1133.8l-72.6,98.47l-72.61-98.47h-48.62v193.97h48.49v-112.43l72.74,98.74l72.73-98.74v112.43h48.5V1133.8
					H871.79z"/>
			</g>
			<g>
				<path d="M1002.98,1133.8v193.97h48.49V1133.8H1002.98z"/>
			</g>
			<g>
				<path d="M1315.95,1182.29v-48.49h-181.91v193.97h181.91v-121.23h-91.02v48.49h42.53v24.24h-84.93v-96.98H1315.95z"/>
			</g>
			<g>
				<path d="M1398.53,1133.8v193.97h181.92V1133.8H1398.53z M1531.95,1241.21l-0.16-0.17v38.29h-85v-97h31.15l-0.04-0.04h54.05
					V1241.21z"/>
			</g>
			<g>
				<path d="M1812.56,1133.8h-149.54v193.97h149.54l32.37-32.38v-129.22L1812.56,1133.8z M1796.44,1275.35l-4.06,3.92h-80.87v-96.98
					h80.87l4.06,3.93V1275.35z"/>
			</g>
		</g>
		<g>
			<g>
				<path d="M411.59,1444.28v-32.02h35.52v-5.57h-35.52V1380h43.02v-5.53h-49.39v75.33h52.74v-5.52H411.59z"/>
				<path class="st2" d="M414.59,1441.28v-26.02h35.52v-11.57h-35.52V1383h43.02v-11.53h-55.39v81.33h58.74v-11.52H414.59z
					 M408.21,1377.47h0.37v69.33h-0.37V1377.47z"/>
			</g>
			<g>
				<path d="M550.06,1353.9v83.82l-45.93-63.25h-5.87l-0.05,75.33h6.36v-64.47l46.82,64.47h4.93v-95.9H550.06z"/>
				<path class="st2" d="M547.06,1350.9v77.58l-41.4-57.01h-10.4l-0.05,81.33h12.36v-58.24l42.29,58.24h9.46v-101.9H547.06z
					 M501.26,1377.47h0.31v69.33h-0.36L501.26,1377.47z M552.91,1446.8l-50.34-69.33l50.37,69.33H552.91z M553.32,1446.8h-0.26
					v-89.9h0.26V1446.8z"/>
			</g>
			<g>
				<path d="M599.22,1374.47v5.58h23.54v69.75h6.31v-69.75h23.38v-5.58H599.22z"/>
				<path class="st2" d="M596.22,1371.47v11.58h23.54v69.75h12.31v-69.75h23.38v-11.58H596.22z M626.08,1446.8h-0.31v-69.33h0.31
					V1446.8z"/>
			</g>
			<g>
				<path d="M701.89,1444.28v-32.02h35.52v-5.57h-35.52V1380h43.02v-5.53h-49.39v75.33h52.74v-5.52H701.89z"/>
				<path class="st2" d="M704.89,1441.28v-26.02h35.52v-11.57h-35.52V1383h43.02v-11.53h-55.39v81.33h58.74v-11.52H704.89z
					 M698.52,1377.47h0.37v69.33h-0.37V1377.47z"/>
			</g>
			<g>
				<path d="M820.47,1420.7c1.03,0,7.2-0.1,11.44-1.83c4.25-1.73,7.81-4.19,10.46-7.22c3.41-3.89,5.33-8.71,5.33-14.09
					c0-12.93-11.64-23.09-25.75-23.09c-33.45,0-33.45,0-33.45,0v75.33h6.41v-69.75h27.04c9.89,0,18.36,6.85,19.38,15.71
					c0.07,0.59,0.1,1.19,0.1,1.8c0,9.77-8.88,17.66-19.48,17.66h-15.34l48.19,47.16h8.73L820.47,1420.7z"/>
				<path class="st2" d="M827.33,1423.15c1.9-0.3,3.93-0.77,5.72-1.5c11.06-4.49,17.66-13.5,17.66-24.09
					c0-14.39-12.9-26.09-28.75-26.09h-36.45v81.33h12.41v-69.75h24.04c9.09,0,16.48,6.51,16.48,14.51c0,8.08-7.39,14.66-16.48,14.66
					h-22.7l54.33,53.16h17.37L827.33,1423.15z M856.12,1459.38h-0.09l-8.76-8.57L856.12,1459.38z M844.43,1397.56
					c0-0.73-0.04-1.45-0.13-2.16c-0.42-3.71-1.93-7.13-4.23-9.98c2.9,3.38,4.63,7.58,4.63,12.14c0,4.54-1.56,8.64-4.46,12.01
					C842.89,1406.18,844.43,1402.03,844.43,1397.56z M791.91,1446.8h-0.41v-69.33h0.41V1446.8z"/>
			</g>
			<g>
				<path d="M885.18,1374.47v5.58h23.54v69.75h6.31v-69.75h23.38v-5.58H885.18z"/>
				<path class="st2" d="M882.18,1371.47v11.58h23.54v69.75h12.31v-69.75h23.38v-11.58H882.18z M912.04,1446.8h-0.31v-69.33h0.31
					V1446.8z"/>
			</g>
			<g>
				<path d="M1001.26,1374.47h-4.48l-34.34,75.33h6.96l29.5-65.71l29.79,65.71h6.66L1001.26,1374.47z"/>
				<path class="st2" d="M1003.19,1371.47h-8.35l-37.07,81.33h13.56l27.57-61.41l27.85,61.41h13.24L1003.19,1371.47z
					 M999.33,1377.47l31.37,69.33h-0.07l-31.44-69.33H999.33z M967.1,1446.8l23.29-51.08l-22.93,51.08H967.1z"/>
			</g>
			<g>
				<path d="M1073.33,1374.47v75.38h6.37v-75.38H1073.33z"/>
				<path class="st2" d="M1070.33,1371.47v81.38h12.37v-81.38H1070.33z M1076.69,1446.85h-0.37v-69.38h0.37V1446.85z"/>
			</g>
			<g>
				<path d="M1173.41,1353.9v83.82l-45.93-63.25h-5.87l-0.05,75.33h6.36v-64.47l46.82,64.47h4.93v-95.9H1173.41z"/>
				<path class="st2" d="M1170.41,1350.9v77.58l-41.4-57.01h-10.4l-0.05,81.33h12.36v-58.24l42.29,58.24h9.46v-101.9H1170.41z
					 M1124.62,1377.47h0.31v69.33h-0.36L1124.62,1377.47z M1176.28,1446.8l-50.34-69.33l50.37,69.33H1176.28z M1176.67,1446.8h-0.26
					v-89.9h0.26V1446.8z"/>
			</g>
			<g>
				<path d="M1298.62,1374.47l-34.98,61.77l-34.43-61.77h-7.65v75.33h6.36v-64.03l35.72,64.03l35.62-64.03v83.62h6.36v-94.92
					H1298.62z"/>
				<path class="st2" d="M1296.87,1371.47l-33.21,58.64l-32.69-58.64h-12.41v81.33h12.36v-55.49l32.72,58.66l32.62-58.64v75.06
					h12.36v-100.92H1296.87z M1224.56,1377.47h0.36v69.33h-0.36V1377.47z M1227.43,1377.47l36.18,64.89l36.74-64.89h0.08
					l-36.81,66.17l-36.9-66.17H1227.43z M1302.62,1466.39h-0.36v-88.92h0.36V1466.39z"/>
			</g>
			<g>
				<path d="M1353.91,1444.28v-32.02h35.51v-5.57h-35.51V1380h43.01v-5.53h-49.38v75.33h52.74v-5.52H1353.91z"/>
				<path class="st2" d="M1356.91,1441.28v-26.02h35.51v-11.57h-35.51V1383h43.01v-11.53h-55.38v81.33h58.74v-11.52H1356.91z
					 M1350.55,1377.47h0.37v69.33h-0.37V1377.47z"/>
			</g>
			<g>
				<path d="M1492.37,1353.9v83.82l-45.92-63.25h-5.88l-0.04,75.33h6.36v-64.47l46.81,64.47h4.94v-95.9H1492.37z"/>
				<path class="st2" d="M1489.37,1350.9v77.58l-41.4-57.01h-10.39l-0.06,81.33h12.37v-58.24l42.29,58.24h9.46v-101.9H1489.37z
					 M1443.58,1377.47h0.32v69.33h-0.36L1443.58,1377.47z M1495.23,1446.8l-50.33-69.33l50.36,69.33H1495.23z M1495.64,1446.8h-0.27
					v-89.9h0.27V1446.8z"/>
			</g>
			<g>
				<path d="M1541.56,1374.47v5.58h23.53v69.75h6.32v-69.75h23.38v-5.58H1541.56z"/>
				<path class="st2" d="M1538.56,1371.47v11.58h23.53v69.75h12.32v-69.75h23.38v-11.58H1538.56z M1568.4,1446.8h-0.32v-69.33h0.32
					V1446.8z"/>
			</g>
		</g>
	</g>
</g>
</svg>
