<?xml version="1.0" encoding="utf-8"?>
<!-- Generator: Adobe Illustrator 25.0.0, SVG Export Plug-In . SVG Version: 6.00 Build 0)  -->
<svg version="1.1" id="Layer_1" xmlns="http://www.w3.org/2000/svg" xmlns:xlink="http://www.w3.org/1999/xlink" x="0px" y="0px"
	 viewBox="0 0 2000 2000" style="enable-background:new 0 0 2000 2000;" xml:space="preserve">
<style type="text/css">
	.st0{fill:url(#SVGID_1_);}
	.st1{fill:url(#SVGID_2_);}
	.st2{fill:url(#SVGID_3_);}
	.st3{fill:url(#SVGID_4_);}
	.st4{fill:url(#SVGID_5_);}
	.st5{fill:url(#SVGID_6_);}
	.st6{fill:url(#SVGID_7_);}
	.st7{fill:url(#SVGID_8_);}
	.st8{fill:url(#SVGID_9_);}
</style>
<rect x="-3.98" y="-3.15" width="2007.96" height="2006.3"/>
<g>
	<linearGradient id="SVGID_1_" gradientUnits="userSpaceOnUse" x1="141.8631" y1="1713.1644" x2="1163.6129" y2="691.4146">
		<stop  offset="0" style="stop-color:#B7792A"/>
		<stop  offset="0.0958" style="stop-color:#C48C39"/>
		<stop  offset="0.3656" style="stop-color:#E6BB60"/>
		<stop  offset="0.5" style="stop-color:#F3CE6F"/>
		<stop  offset="0.6344" style="stop-color:#E6BB60"/>
		<stop  offset="0.9042" style="stop-color:#C48C39"/>
		<stop  offset="1" style="stop-color:#B7792A"/>
	</linearGradient>
	<path class="st0" d="M351.42,1295.13c0.79-4.49,2.38-6.87,4.49-6.87c2.11,0,3.7,1.32,7.14,8.19l72.15,149.06l71.89-150.91
		c2.11-4.23,3.44-6.34,5.81-6.34c2.38,0,3.96,2.64,4.76,8.19l24.05,163.34c2.38,16.65,5.02,24.32,12.95,26.69
		c7.67,2.38,12.95,2.64,16.39,2.64c2.38,0,4.23,0.26,4.23,1.85c0,2.11-3.17,2.91-6.87,2.91c-6.61,0-43.08-0.79-53.65-1.59
		c-6.08-0.53-7.66-1.32-7.66-2.91c0-1.32,1.06-2.11,2.91-2.91c1.59-0.53,2.38-3.96,1.32-11.36l-15.86-116.29h-1.06l-57.62,119.99
		c-6.08,12.42-7.4,14.8-9.78,14.8c-2.38,0-5.02-5.29-9.25-13.22c-6.34-12.16-27.22-52.6-30.39-60
		c-2.38-5.55-18.24-38.85-27.49-58.67h-1.06l-13.74,105.19c-0.53,4.76-0.79,8.19-0.79,12.42c0,5.02,3.44,7.4,7.93,8.46
		c4.76,1.06,8.46,1.32,11.1,1.32c2.11,0,3.96,0.53,3.96,1.85c0,2.38-2.38,2.91-6.34,2.91c-11.1,0-22.99-0.79-27.75-0.79
		c-5.02,0-17.71,0.79-26.17,0.79c-2.64,0-4.76-0.53-4.76-2.91c0-1.32,1.59-1.85,4.23-1.85c2.11,0,3.96,0,7.93-0.79
		c7.4-1.59,9.51-11.89,10.84-20.88L351.42,1295.13z"/>
	<linearGradient id="SVGID_2_" gradientUnits="userSpaceOnUse" x1="238.1195" y1="1809.4209" x2="1259.8694" y2="787.671">
		<stop  offset="0" style="stop-color:#B7792A"/>
		<stop  offset="0.0958" style="stop-color:#C48C39"/>
		<stop  offset="0.3656" style="stop-color:#E6BB60"/>
		<stop  offset="0.5" style="stop-color:#F3CE6F"/>
		<stop  offset="0.6344" style="stop-color:#E6BB60"/>
		<stop  offset="0.9042" style="stop-color:#C48C39"/>
		<stop  offset="1" style="stop-color:#B7792A"/>
	</linearGradient>
	<path class="st1" d="M665.4,1425.43c0-14.27-2.64-20.09-6.08-27.75c-1.85-4.23-37.27-62.37-46.52-76.12
		c-6.61-9.78-13.22-16.39-18.24-19.29c-3.44-1.85-7.93-3.44-11.1-3.44c-2.11,0-3.96-0.53-3.96-2.38c0-1.59,1.85-2.38,5.02-2.38
		c4.76,0,24.58,0.79,33.3,0.79c5.55,0,16.39-0.79,28.28-0.79c2.64,0,3.96,0.79,3.96,2.38c0,1.59-1.85,1.85-5.81,2.91
		c-2.38,0.53-3.7,2.64-3.7,4.76c0,2.11,1.32,5.29,3.17,8.99c3.7,7.93,40.7,71.62,44.93,79.03c2.64-6.34,35.94-64.49,39.64-72.68
		c2.64-5.81,3.7-10.31,3.7-13.74c0-2.64-1.06-5.55-5.55-6.61c-2.38-0.53-4.76-1.06-4.76-2.64c0-1.85,1.32-2.38,4.49-2.38
		c8.72,0,17.18,0.79,24.84,0.79c5.82,0,23.26-0.79,28.28-0.79c2.91,0,4.76,0.53,4.76,2.11c0,1.85-2.11,2.64-5.02,2.64
		c-2.64,0-7.66,1.06-11.63,3.17c-5.55,2.64-8.46,5.81-14.27,12.95c-8.72,10.57-45.72,72.68-50.48,84.05
		c-3.96,9.51-3.96,17.71-3.96,26.43v21.67c0,4.23,0,15.33,0.79,26.43c0.53,7.66,2.91,13.48,10.84,14.54
		c3.7,0.53,9.51,1.06,13.21,1.06c2.91,0,4.23,0.79,4.23,2.11c0,1.85-2.11,2.64-5.55,2.64c-16.65,0-33.3-0.79-40.44-0.79
		c-6.61,0-23.26,0.79-33.04,0.79c-3.7,0-5.81-0.53-5.81-2.64c0-1.32,1.32-2.11,4.23-2.11c3.7,0,6.87-0.53,9.25-1.06
		c5.29-1.06,7.66-6.87,8.19-14.54c0.79-11.1,0.79-22.2,0.79-26.43V1425.43z"/>
	<linearGradient id="SVGID_3_" gradientUnits="userSpaceOnUse" x1="346.7278" y1="1918.0292" x2="1368.4777" y2="896.2794">
		<stop  offset="0" style="stop-color:#B7792A"/>
		<stop  offset="0.0958" style="stop-color:#C48C39"/>
		<stop  offset="0.3656" style="stop-color:#E6BB60"/>
		<stop  offset="0.5" style="stop-color:#F3CE6F"/>
		<stop  offset="0.6344" style="stop-color:#E6BB60"/>
		<stop  offset="0.9042" style="stop-color:#C48C39"/>
		<stop  offset="1" style="stop-color:#B7792A"/>
	</linearGradient>
	<path class="st2" d="M875.78,1308.87l-39.38,1.06c-15.33,0.53-21.67,1.85-25.64,7.66c-2.64,3.96-3.96,7.14-4.49,9.25
		c-0.53,2.11-1.32,3.17-2.91,3.17c-1.85,0-2.38-1.32-2.38-4.23c0-4.23,5.02-28.28,5.55-30.39c0.79-3.44,1.59-5.02,3.17-5.02
		c2.11,0,4.76,2.64,11.36,3.17c7.66,0.79,17.71,1.32,26.43,1.32h104.66c8.46,0,14.27-0.79,18.24-1.32c3.96-0.79,6.08-1.32,7.14-1.32
		c1.85,0,2.11,1.59,2.11,5.55c0,5.55-0.79,23.79-0.79,30.66c-0.26,2.64-0.79,4.23-2.38,4.23c-2.11,0-2.64-1.32-2.91-5.29l-0.26-2.91
		c-0.53-6.87-7.66-14.27-31.19-14.8l-33.3-0.79v108.36c0,24.32,0,45.2,1.32,56.56c0.79,7.4,2.38,13.21,10.31,14.27
		c3.7,0.53,9.52,1.06,13.48,1.06c2.91,0,4.23,0.79,4.23,2.11c0,1.85-2.11,2.64-5.02,2.64c-17.44,0-34.09-0.79-41.49-0.79
		c-6.08,0-22.73,0.79-33.3,0.79c-3.44,0-5.29-0.79-5.29-2.64c0-1.32,1.06-2.11,4.23-2.11c3.96,0,7.14-0.53,9.51-1.06
		c5.29-1.06,6.87-6.87,7.66-14.54c1.32-11.1,1.32-31.98,1.32-56.3V1308.87z"/>
	<linearGradient id="SVGID_4_" gradientUnits="userSpaceOnUse" x1="481.8432" y1="2053.1445" x2="1503.5931" y2="1031.3948">
		<stop  offset="0" style="stop-color:#B7792A"/>
		<stop  offset="0.0958" style="stop-color:#C48C39"/>
		<stop  offset="0.3656" style="stop-color:#E6BB60"/>
		<stop  offset="0.5" style="stop-color:#F3CE6F"/>
		<stop  offset="0.6344" style="stop-color:#E6BB60"/>
		<stop  offset="0.9042" style="stop-color:#C48C39"/>
		<stop  offset="1" style="stop-color:#B7792A"/>
	</linearGradient>
	<path class="st3" d="M1190.3,1378.12c0.79,0,1.59-0.53,1.59-1.85v-5.55c0-40.17,0-47.57-0.53-56.03
		c-0.53-8.99-2.64-13.22-11.36-15.07c-2.11-0.53-6.61-0.79-10.31-0.79c-2.91,0-4.49-0.53-4.49-2.38c0-1.85,1.85-2.38,5.55-2.38
		c14.27,0,30.92,0.79,38.06,0.79c6.34,0,22.99-0.79,33.3-0.79c3.7,0,5.55,0.53,5.55,2.38c0,1.85-1.59,2.38-4.76,2.38
		c-2.11,0-4.49,0.26-7.66,0.79c-7.14,1.32-9.25,5.81-9.78,15.07c-0.53,8.46-0.53,15.86-0.53,56.03v46.52c0,24.32,0,45.2,1.32,56.56
		c0.79,7.4,2.38,13.21,10.31,14.27c3.7,0.53,9.51,1.06,13.48,1.06c2.91,0,4.23,0.79,4.23,2.11c0,1.85-2.11,2.64-5.29,2.64
		c-17.18,0-33.83-0.79-41.23-0.79c-6.08,0-22.73,0.79-33.04,0.79c-3.7,0-5.55-0.79-5.55-2.64c0-1.32,1.06-2.11,4.23-2.11
		c3.96,0,7.14-0.53,9.52-1.06c5.29-1.06,6.61-6.87,7.66-14.54c1.32-11.1,1.32-31.98,1.32-56.3v-23.26c0-1.06-0.79-1.59-1.59-1.59
		h-100.96c-0.79,0-1.59,0.26-1.59,1.59v23.26c0,24.32,0,45.2,1.32,56.56c0.79,7.4,2.38,13.21,10.31,14.27
		c3.7,0.53,9.51,1.06,13.48,1.06c2.91,0,4.23,0.79,4.23,2.11c0,1.85-2.11,2.64-5.29,2.64c-17.18,0-33.83-0.79-41.23-0.79
		c-6.08,0-22.73,0.79-33.3,0.79c-3.44,0-5.29-0.79-5.29-2.64c0-1.32,1.06-2.11,4.23-2.11c3.96,0,7.14-0.53,9.51-1.06
		c5.29-1.06,6.61-6.87,7.67-14.54c1.32-11.1,1.32-31.98,1.32-56.3v-46.52c0-40.17,0-47.57-0.53-56.03
		c-0.53-8.99-2.64-13.22-11.37-15.07c-2.11-0.53-6.61-0.79-10.31-0.79c-2.91,0-4.49-0.53-4.49-2.38c0-1.85,1.85-2.38,5.55-2.38
		c14.27,0,30.92,0.79,38.06,0.79c6.34,0,22.99-0.79,33.3-0.79c3.7,0,5.55,0.53,5.55,2.38c0,1.85-1.59,2.38-4.76,2.38
		c-2.11,0-4.49,0.26-7.66,0.79c-7.14,1.32-9.25,5.81-9.78,15.07c-0.53,8.46-0.53,15.86-0.53,56.03v5.55c0,1.32,0.79,1.85,1.59,1.85
		H1190.3z"/>
	<linearGradient id="SVGID_5_" gradientUnits="userSpaceOnUse" x1="618.189" y1="2189.4905" x2="1639.939" y2="1167.7406">
		<stop  offset="0" style="stop-color:#B7792A"/>
		<stop  offset="0.0958" style="stop-color:#C48C39"/>
		<stop  offset="0.3656" style="stop-color:#E6BB60"/>
		<stop  offset="0.5" style="stop-color:#F3CE6F"/>
		<stop  offset="0.6344" style="stop-color:#E6BB60"/>
		<stop  offset="0.9042" style="stop-color:#C48C39"/>
		<stop  offset="1" style="stop-color:#B7792A"/>
	</linearGradient>
	<path class="st4" d="M1306.59,1393.98c0-45.19,29.87-103.6,109.16-103.6c65.81,0,106.78,38.32,106.78,98.85
		c0,60.52-42.29,108.36-109.42,108.36C1337.24,1497.58,1306.59,1440.76,1306.59,1393.98z M1485.52,1399
		c0-59.2-34.09-95.94-77.44-95.94c-30.39,0-65.02,16.92-65.02,82.73c0,54.97,30.39,98.58,81.14,98.58
		C1442.7,1484.37,1485.52,1475.38,1485.52,1399z"/>
	<linearGradient id="SVGID_6_" gradientUnits="userSpaceOnUse" x1="733.1431" y1="2304.4443" x2="1754.8929" y2="1282.6946">
		<stop  offset="0" style="stop-color:#B7792A"/>
		<stop  offset="0.0958" style="stop-color:#C48C39"/>
		<stop  offset="0.3656" style="stop-color:#E6BB60"/>
		<stop  offset="0.5" style="stop-color:#F3CE6F"/>
		<stop  offset="0.6344" style="stop-color:#E6BB60"/>
		<stop  offset="0.9042" style="stop-color:#C48C39"/>
		<stop  offset="1" style="stop-color:#B7792A"/>
	</linearGradient>
	<path class="st5" d="M1592.29,1490.71c-4.23-1.85-5.02-3.17-5.02-8.99c0-14.54,1.06-30.39,1.32-34.62
		c0.26-3.96,1.06-6.87,3.17-6.87c2.38,0,2.64,2.38,2.64,4.49c0,3.44,1.06,8.99,2.38,13.48c5.81,19.56,21.41,26.69,37.79,26.69
		c23.79,0,35.42-16.12,35.42-30.13c0-12.95-3.96-25.11-25.9-42.29l-12.16-9.51c-29.07-22.73-39.12-41.23-39.12-62.64
		c0-29.07,24.31-49.95,61.05-49.95c17.18,0,28.28,2.64,35.15,4.49c2.38,0.53,3.7,1.32,3.7,3.17c0,3.44-1.06,11.1-1.06,31.72
		c0,5.81-0.79,7.93-2.91,7.93c-1.85,0-2.64-1.59-2.64-4.76c0-2.38-1.32-10.57-6.87-17.44c-3.96-5.02-11.63-12.95-28.81-12.95
		c-19.56,0-31.45,11.36-31.45,27.22c0,12.16,6.08,21.41,28.02,38.06l7.4,5.55c31.98,24.05,43.34,42.29,43.34,67.4
		c0,15.33-5.81,33.57-24.84,45.99c-13.22,8.46-28.02,10.84-42.02,10.84C1615.55,1497.58,1603.66,1495.73,1592.29,1490.71z"/>
</g>
<g>
	<linearGradient id="SVGID_7_" gradientUnits="userSpaceOnUse" x1="1260.0701" y1="1813.0837" x2="1260.0701" y2="356.4751">
		<stop  offset="0" style="stop-color:#B7792A"/>
		<stop  offset="0.0958" style="stop-color:#C48C39"/>
		<stop  offset="0.3656" style="stop-color:#E6BB60"/>
		<stop  offset="0.5" style="stop-color:#F3CE6F"/>
		<stop  offset="0.6344" style="stop-color:#E6BB60"/>
		<stop  offset="0.9042" style="stop-color:#C48C39"/>
		<stop  offset="1" style="stop-color:#B7792A"/>
	</linearGradient>
	<path class="st6" d="M1367.01,1190.8c0,5.69-8.52,7.82-18.47,7.82c-17.77,0-115.82-2.13-144.25-4.26
		c-16.34-1.42-20.61-3.56-20.61-7.82c0-3.55,2.85-5.68,7.82-7.82c4.27-1.42,6.4-10.65,3.55-30.55l-41.92-307.41
		c2.58-1.5,5.2-2.95,7.85-4.36c2.8-1.49,5.62-2.88,8.46-4.2c20.78-9.55,42.58-14.12,65.28-10.85l42.05,285.61
		c6.4,44.76,13.5,65.37,34.82,71.76c20.61,6.4,34.82,7.11,44.05,7.11C1362.04,1185.83,1367.01,1186.54,1367.01,1190.8z"/>
	<linearGradient id="SVGID_8_" gradientUnits="userSpaceOnUse" x1="740.0701" y1="1813.0837" x2="740.0701" y2="356.4751">
		<stop  offset="0" style="stop-color:#B7792A"/>
		<stop  offset="0.0958" style="stop-color:#C48C39"/>
		<stop  offset="0.3656" style="stop-color:#E6BB60"/>
		<stop  offset="0.5" style="stop-color:#F3CE6F"/>
		<stop  offset="0.6344" style="stop-color:#E6BB60"/>
		<stop  offset="0.9042" style="stop-color:#C48C39"/>
		<stop  offset="1" style="stop-color:#B7792A"/>
	</linearGradient>
	<path class="st7" d="M633.13,1190.8c0,5.69,8.52,7.82,18.47,7.82c17.77,0,115.82-2.13,144.25-4.26
		c16.34-1.42,20.61-3.56,20.61-7.82c0-3.55-2.85-5.68-7.82-7.82c-4.27-1.42-6.4-10.65-3.55-30.55l41.92-307.41
		c-2.58-1.5-5.2-2.95-7.85-4.36c-2.8-1.49-5.62-2.88-8.46-4.2c-20.78-9.55-42.58-14.12-65.28-10.85l-42.05,285.61
		c-6.4,44.76-13.5,65.37-34.82,71.76c-20.61,6.4-34.82,7.11-44.05,7.11C638.1,1185.83,633.13,1186.54,633.13,1190.8z"/>
	<linearGradient id="SVGID_9_" gradientUnits="userSpaceOnUse" x1="1000" y1="1813.0837" x2="1000" y2="356.4751">
		<stop  offset="0" style="stop-color:#B7792A"/>
		<stop  offset="0.0958" style="stop-color:#C48C39"/>
		<stop  offset="0.3656" style="stop-color:#E6BB60"/>
		<stop  offset="0.5" style="stop-color:#F3CE6F"/>
		<stop  offset="0.6344" style="stop-color:#E6BB60"/>
		<stop  offset="0.9042" style="stop-color:#C48C39"/>
		<stop  offset="1" style="stop-color:#B7792A"/>
	</linearGradient>
	<path class="st8" d="M1539.4,515.59c46.14-25.25,96.65-37.64,150.37-41.53c-1.74-1.49-2.71-2.96-3.99-3.33
		c-136.04-39.26-270.76-40.88-403.17,15.08c-36.5,15.43-70.03,35.45-100.73,59.64c-13.85,10.88-27.12,22.63-39.82,35.18
		c-18.72,18.48-33.24,39.86-44.7,66.96c7.77-6.87,12.8-12.24,18.71-16.37c18.8-13.21,38.47-6.09,42.58,16.51
		c1.66,9.23-0.2,20.19-3.73,29.05c-13.22,33.03-35.99,59.53-60.15,85.16c-23.07,24.43-46.1,49.08-66.89,75.42
		c-13.25,16.77-22.01,35.6-27.88,55.44c-5.86-19.84-14.62-38.67-27.87-55.44c-20.79-26.34-43.82-50.99-66.89-75.42
		c-24.17-25.63-46.93-52.13-60.16-85.16c-3.53-8.86-5.39-19.82-3.72-29.05c4.11-22.6,23.78-29.72,42.57-16.51
		c5.91,4.13,10.95,9.5,18.72,16.37c-11.47-27.1-25.98-48.48-44.7-66.96c-40.91-40.4-87.62-72.44-140.55-94.82
		c-132.41-55.96-267.14-54.34-403.18-15.08c-1.28,0.37-2.25,1.84-3.99,3.33c53.73,3.89,104.24,16.28,150.38,41.53
		c21.07,11.53,41.05,26.98,57.52,44.43c20.88,22.13,22.37,49.71,7.2,76.62c-6.84,12.12-15.27,23.42-23.7,34.54
		c-14.13,18.63-21.45,39.79-26.38,61.84c14.7-9.8,28.02-20.71,43.05-28.28c32.44-16.33,67.11-10.73,93.42,14.3
		c28.41,27.01,41.02,61.18,42.42,99.9c0.66,18.33,0.39,36.76,2.31,54.95c2.07,19.71,7.7,38.41,27.92,50.94
		c-9.94-49.79,13.49-94.8,55.89-112.59c4.86-2.05,9.98-3.73,15.32-5.02c29.33-7.09,57.25-0.71,83.44,13.18
		c22.48,11.94,42.32,26.89,60.31,44.03c13.07,12.44,25.17,26.05,36.6,40.5c20.19,25.54,37.79,52.33,51.52,81.15
		c4.65,9.74,8.86,19.72,12.55,29.96c3.71-10.24,7.91-20.22,12.56-29.96c11.7-24.55,26.2-47.63,42.74-69.72
		c2.86-3.84,5.79-7.65,8.78-11.43c17.73-22.42,37.09-42.82,59.19-60.04c6.84-5.3,13.93-10.3,21.31-14.97
		c2.81-1.77,5.66-3.49,8.55-5.16c2.58-1.5,5.2-2.95,7.85-4.36c2.8-1.49,5.62-2.88,8.46-4.2c20.78-9.55,42.58-14.12,65.28-10.85
		c3.22,0.46,6.46,1.08,9.71,1.87c19.82,4.78,36.5,14.97,48.93,28.83c20.13,22.42,29.13,54.47,22.28,88.78
		c20.22-12.53,25.85-31.23,27.92-50.94c1.92-18.19,1.65-36.62,2.3-54.95c1.4-38.72,14.02-72.89,42.43-99.9
		c26.31-25.03,60.97-30.63,93.42-14.3c15.02,7.57,28.35,18.48,43.05,28.28c-4.93-22.05-12.26-43.21-26.39-61.84
		c-8.43-11.12-16.85-22.42-23.67-34.54c-15.19-26.91-13.7-54.49,7.17-76.62C1498.34,542.57,1518.33,527.12,1539.4,515.59z
		 M421.93,466.74c133.47-29.9,330.43,32.04,402.77,122.99C707.58,493.63,571.93,462.27,421.93,466.74z M528.08,671.72
		c68.11-71.8,195.32-106.13,287.36-74.1c-50.87-7-101.21-4.66-151.02,7.69C614.27,617.75,569.27,640.7,528.08,671.72z M788.06,637.1
		c-8.77,7.73-17.05,15.75-24.85,24.03c-50.93,54.06-81.32,119.59-90.69,196.88c-4.73-71.12,34-156.03,92.24-207.11
		c6.82-5.98,13.9-11.5,21.22-16.47c6.09-4.15,12.34-7.92,18.73-11.27C798.98,627.7,793.43,632.35,788.06,637.1z M990.99,938.05
		c-9.3-18.72-17.67-39.34-30.67-56.42c-20.18-26.48-44.36-49.96-67.39-74.19c-13.1-13.77-27.25-26.63-40.61-40.14
		c-6.57-6.63-12.94-13.43-18.91-20.56c-17.29-20.71-24.48-42.99-23.09-66.2c0.88-14.79,5.25-29.96,12.7-45.35
		c-16.32,50.23,7.4,86.28,41.42,118.54c34.17,32.45,70.25,63.07,96.16,103.22c15.28,23.7,25.36,49.28,31.17,75.11
		c0.94,4.11,1.76,8.24,2.47,12.35C993.14,942.32,992.07,940.19,990.99,938.05z M1166.6,746.74c-18.06,21.59-39.83,40.03-59.31,60.49
		c-0.08,0.07-0.14,0.14-0.21,0.21c-23.03,24.23-47.22,47.71-67.39,74.19c-13,17.08-21.37,37.7-30.68,56.42
		c-1.07,2.14-2.14,4.27-3.24,6.36c0.71-4.11,1.53-8.24,2.47-12.35c5.81-25.83,15.89-51.41,31.16-75.11
		c24.63-38.16,58.44-67.72,91.08-98.41c1.7-1.6,3.4-3.2,5.09-4.81c30.04-28.49,52.05-59.93,45.54-101.49
		c-0.86-5.5-2.21-11.18-4.12-17.05c2.2,4.54,4.13,9.06,5.78,13.56C1195.5,683.41,1191.65,716.73,1166.6,746.74z M1327.49,858.01
		c-5.14-42.24-16.53-81-34.13-116.28c-22.57-45.18-55.3-84.66-98.07-118.57c39.77,20.86,74.25,57.95,98.07,100.63
		C1317.2,766.5,1330.38,814.81,1327.49,858.01z M1471.93,671.72c-41.19-31.02-86.19-53.97-136.34-66.41
		c-14.03-3.47-28.11-6.17-42.23-8.06c-35.99-4.87-72.26-4.66-108.79,0.37c33.16-11.54,70.89-14.46,108.79-10.14
		C1360.62,595.2,1428.36,625.8,1471.93,671.72z M1237.92,545.42c-21.41,12.91-42.3,27.63-62.61,44.31
		c12.51-15.72,28.75-30.58,47.75-44.25c90.82-65.39,244.64-103.48,355.02-78.74C1454.1,463.04,1339.92,483.83,1237.92,545.42z"/>
</g>
</svg>
